<?xml version="1.0" encoding="UTF-8" standalone="no" ?>
<!DOCTYPE svg PUBLIC "-//W3C//DTD SVG 1.1//EN" "http://www.w3.org/Graphics/SVG/1.1/DTD/svg11.dtd">
<svg xmlns="http://www.w3.org/2000/svg" xmlns:xlink="http://www.w3.org/1999/xlink" version="1.1" width="32" height="20.87072" viewBox="0 0 32 20.87072" xml:space="preserve">
<desc>Created with Fabric.js 4.6.0</desc>
<defs>
</defs>
<g transform="matrix(0.03 0 0 -0.03 28.26 10.61)" id="MLQrIAluFFaHOHv6xn4DA"  >
<path style="stroke: none; stroke-width: 1; stroke-dasharray: none; stroke-linecap: butt; stroke-dashoffset: 0; stroke-linejoin: miter; stroke-miterlimit: 4; fill: rgb(0,0,0); fill-rule: nonzero; opacity: 1;" vector-effect="non-scaling-stroke"  transform=" translate(-113, -132)" d="M 12 -170 C 4 -160 0 411 0 411 C 1 429 17 439 31 439 C 41 439 50 433 50 422 C 50 402 44 162 43 140 C 43 133 47 126 54 123 C 56 122 57 122 59 122 C 64 122 75 131 81 136 C 95 145 119 153 136 153 C 182 150 226 114 226 57 C 226 11 195 -50 106 -112 C 81 -129 57 -156 27 -173 C 27 -173 24 -175 21 -175 C 18 -175 15 -174 12 -170 z M 47 -81 C 47 -86 49 -96 58 -96 C 61 -96 64 -95 68 -93 C 111 -66 157 -12 157 42 C 157 67 145 100 116 100 C 93 100 53 71 46 51 C 45 47 44 35 44 19 C 44 -21 47 -81 47 -81 z" stroke-linecap="round" />
</g>
<g transform="matrix(0.03 0 0 -0.03 16.24 10.61)" id="Ei7wGcoLk6UfLfYktoFe9"  >
<path style="stroke: none; stroke-width: 1; stroke-dasharray: none; stroke-linecap: butt; stroke-dashoffset: 0; stroke-linejoin: miter; stroke-miterlimit: 4; fill: rgb(0,0,0); fill-rule: nonzero; opacity: 1;" vector-effect="non-scaling-stroke"  transform=" translate(0, 0)" d="M 57 178 L 72 183 C 73 184 75 184 76 184 C 80 184 84 181 84 176 L 84 -326 C 84 -333 78 -338 72 -338 L 59 -338 C 52 -338 47 -333 47 -326 L 47 -177 C 47 -169 40 -166 30 -166 C 1 -166 -55 -190 -69 -196 C -70 -197 -72 -197 -73 -197 L -75 -198 C -81 -198 -84 -195 -84 -189 L -84 326 C -84 333 -79 338 -72 338 L -59 338 C -53 338 -47 333 -47 326 L -47 159 C -47 155 -43 154 -37 154 C -11 154 53 177 53 177 C 54 177 55 178 57 178 z M -47 36 L -47 -67 C -47 -71 -42 -73 -35 -73 C -10 -73 47 -50 47 -32 L 47 71 C 47 75 44 76 38 76 C 14 76 -47 50 -47 36 z" stroke-linecap="round" />
</g>
<g transform="matrix(0.03 0 0 -0.03 4.11 10.61)" id="D3fSv_N15o44srRDI3DEI"  >
<path style="stroke: none; stroke-width: 1; stroke-dasharray: none; stroke-linecap: butt; stroke-dashoffset: 0; stroke-linejoin: miter; stroke-miterlimit: 4; fill: rgb(0,0,0); fill-rule: nonzero; opacity: 1;" vector-effect="non-scaling-stroke"  transform=" translate(-124.5, -1)" d="M 237 118 L 211 108 C 203 105 198 86 198 79 L 198 -14 C 198 -26 205 -32 211 -32 L 237 -22 C 239 -21 240 -21 242 -21 C 246 -21 249 -24 249 -29 L 249 -100 C 249 -106 244 -114 237 -117 C 237 -117 216 -125 209 -128 C 202 -131 198 -143 198 -151 L 198 -293 C 198 -299 192 -304 181 -304 C 174 -304 168 -299 168 -293 L 168 -168 C 168 -162 163 -150 154 -150 L 152 -151 L 151 -151 L 90 -176 C 85 -178 80 -185 80 -198 L 80 -337 C 80 -343 73 -348 63 -348 C 56 -348 50 -343 50 -337 L 50 -214 C 50 -209 45 -198 38 -198 C 37 -198 36 -198 35 -199 C 26 -202 12 -208 11 -208 L 9 -209 C 3 -209 0 -206 0 -200 L 0 -129 C 0 -123 5 -115 12 -113 C 12 -113 33 -104 39 -102 C 45 -99 50 -90 50 -79 L 50 20 C 50 28 44 38 36 38 L 35 37 C 27 33 12 27 11 27 L 9 26 C 3 26 0 29 0 35 L 0 106 C 0 112 5 120 12 122 C 12 122 32 130 38 133 C 44 136 50 146 50 160 L 50 295 C 50 301 56 306 66 306 C 73 306 80 301 80 295 L 80 175 C 80 167 83 155 92 155 C 109 159 143 173 155 180 C 164 186 167 199 168 209 L 168 339 C 168 345 174 350 184 350 C 192 350 198 345 198 339 L 198 217 C 198 209 205 204 212 204 C 217 205 237 213 237 213 C 239 214 240 214 242 214 C 246 214 249 211 249 206 L 249 135 C 249 129 244 121 237 118 z M 168 -45 C 170 -36 172 -8 172 19 C 172 46 170 71 168 76 C 166 80 160 82 153 82 C 128 82 82 61 80 44 C 78 36 77 1 77 -30 C 77 -54 78 -76 80 -80 C 81 -83 86 -85 92 -85 C 115 -85 162 -65 168 -45 z" stroke-linecap="round" />
</g>
</svg>