<?xml version="1.0" encoding="UTF-8" standalone="no" ?>
<!DOCTYPE svg PUBLIC "-//W3C//DTD SVG 1.1//EN" "http://www.w3.org/Graphics/SVG/1.1/DTD/svg11.dtd">
<svg xmlns="http://www.w3.org/2000/svg" xmlns:xlink="http://www.w3.org/1999/xlink" version="1.1" width="32" height="32" viewBox="0 0 32 32" xml:space="preserve">
<desc>Created with Fabric.js 4.6.0</desc>
<defs>
</defs>
<g transform="matrix(0.03 0 0 0.03 15.93 15.95)" id="5ck5Ni4Ieyv3LDY9Xdcks"  >
<g style="" vector-effect="non-scaling-stroke"   >
		<g transform="matrix(1 0 0 1 -505 0)" id="5bxH8D6TDz3tGNfWlnYs-"  >
<path style="stroke: none; stroke-width: 1; stroke-dasharray: none; stroke-linecap: butt; stroke-dashoffset: 0; stroke-linejoin: miter; stroke-miterlimit: 4; fill: rgb(0,0,0); fill-rule: nonzero; opacity: 1;" vector-effect="non-scaling-stroke"  transform=" translate(-18, -500)" d="M 36 0 L 0 0 L 0 1000 L 36 1000 L 36 0 z" stroke-linecap="round" />
</g>
		<g transform="matrix(1 0 0 1 340 0)" id="d37h-wXwDAxUfkn5gv93U"  >
<path style="stroke: none; stroke-width: 1; stroke-dasharray: none; stroke-linecap: butt; stroke-dashoffset: 0; stroke-linejoin: miter; stroke-miterlimit: 4; fill: rgb(0,0,0); fill-rule: nonzero; opacity: 1;" vector-effect="non-scaling-stroke"  transform=" translate(-184, -500)" d="M 175 0 L 139 0 L 139 1000 L 175 1000 L 175 0 z M 367 1000 L 367 0 L 242 0 L 242 1000 L 367 1000 z M 51 680 C 78 680 101 658 101 630 C 101 603 78 580 51 580 C 23 580 1 603 1 630 C 1 658 23 680 51 680 z M 51 428 C 78 428 101 406 101 378 C 101 350 78 328 51 328 C 23 328 1 350 1 378 C 1 406 23 428 51 428 z" stroke-linecap="round" />
</g>
		<g transform="matrix(1 0 0 1 -91 0)" id="21p2DwnjzVujjNW8DkWSU"  >
<path style="stroke: none; stroke-width: 1; stroke-dasharray: none; stroke-linecap: butt; stroke-dashoffset: 0; stroke-linejoin: miter; stroke-miterlimit: 4; fill: rgb(0,0,0); fill-rule: nonzero; opacity: 1;" vector-effect="non-scaling-stroke"  transform=" translate(-72, -500)" d="M 36 0 L 0 0 L 0 1000 L 36 1000 L 36 0 z M 144 1000 L 144 0 L 108 0 L 108 1000 L 144 1000 z" stroke-linecap="round" />
</g>
</g>
</g>
</svg>