<?xml version="1.0" encoding="UTF-8" standalone="no" ?>
<!DOCTYPE svg PUBLIC "-//W3C//DTD SVG 1.1//EN" "http://www.w3.org/Graphics/SVG/1.1/DTD/svg11.dtd">
<svg xmlns="http://www.w3.org/2000/svg" xmlns:xlink="http://www.w3.org/1999/xlink" version="1.1" width="32" height="32" viewBox="0 0 32 32" xml:space="preserve">
<desc>Created with Fabric.js 4.6.0</desc>
<defs>
</defs>
<g transform="matrix(0.03 0 0 -0.03 16.15 16.21)" id="K1XMWug_3D2YjtHRdKtl8"  >
<path style="stroke: none; stroke-width: 1; stroke-dasharray: none; stroke-linecap: butt; stroke-dashoffset: 0; stroke-linejoin: miter; stroke-miterlimit: 4; fill: rgb(0,0,0); fill-rule: nonzero; opacity: 1;" vector-effect="non-scaling-stroke"  transform=" translate(-349, -146)" d="M 422 264 L 480 264 C 494 264 495 264 500 279 C 533 375 587 444 684 444 C 747 444 770 414 770 377 C 770 340 747 323 721 323 C 696 323 676 337 676 365 C 676 383 684 397 697 403 C 708 408 713 407 713 413 C 713 419 705 421 697 421 C 647 421 625 368 605 281 C 604 275 603 272 603 269 C 603 264 606 264 613 264 L 673 264 C 683 264 688 259 688 249 C 688 238 683 233 672 233 L 607 233 C 602 233 594 224 594 221 L 593 220 C 569 135 547 73 518 12 C 463 -101 416 -152 340 -152 C 298 -152 265 -129 265 -85 C 265 -54 287 -30 317 -30 C 344 -30 362 -45 362 -71 C 362 -87 354 -100 342 -108 C 327 -118 318 -113 318 -121 C 318 -126 323 -130 336 -130 C 376 -130 394 -98 422 0 L 485 219 C 486 224 487 227 487 229 C 487 233 485 233 479 233 L 421 233 C 411 233 406 238 406 248 C 406 259 411 264 422 264 z M -13 -107 L 110 198 C 113 205 116 215 116 223 C 116 230 113 235 105 235 C 87 235 67 209 38 159 C 33 150 29 144 22 144 C 16 144 11 148 11 155 C 11 160 13 165 18 174 C 49 231 81 273 140 273 C 166 273 181 264 188 252 C 197 235 194 228 199 228 C 203 228 206 236 220 248 C 238 264 260 274 291 274 C 347 274 383 243 383 185 C 383 90 305 -10 209 -10 C 192 -10 179 -8 165 -1 C 149 7 146 17 141 17 C 136 17 134 10 132 5 L 87 -107 C 86 -110 85 -113 85 -114 C 85 -117 88 -117 94 -117 L 134 -117 C 142 -117 146 -121 146 -129 C 146 -138 142 -142 133 -142 L -60 -142 C -68 -142 -72 -138 -72 -130 C -72 -121 -68 -117 -59 -117 L -28 -117 C -18 -117 -16 -115 -13 -107 z M 200 174 L 180 125 C 169 97 161 77 161 56 C 161 35 169 24 186 24 C 234 24 287 151 287 200 C 287 222 281 237 264 237 C 240 237 214 208 200 174 z" stroke-linecap="round" />
</g>
</svg>