<?xml version="1.0" encoding="UTF-8" standalone="no" ?>
<!DOCTYPE svg PUBLIC "-//W3C//DTD SVG 1.1//EN" "http://www.w3.org/Graphics/SVG/1.1/DTD/svg11.dtd">
<svg xmlns="http://www.w3.org/2000/svg" xmlns:xlink="http://www.w3.org/1999/xlink" version="1.1" width="602" height="332" viewBox="0 0 602 332" xml:space="preserve">
<desc>Created with Fabric.js 4.6.0</desc>
<defs>
</defs>
<g transform="matrix(1 0 0 -1 301.5 166.5)" id="0GUztX5592h0Nhqc9R3CH"  >
<path style="stroke: none; stroke-width: 1; stroke-dasharray: none; stroke-linecap: butt; stroke-dashoffset: 0; stroke-linejoin: miter; stroke-miterlimit: 4; fill: rgb(0,0,0); fill-rule: nonzero; opacity: 1;" vector-effect="non-scaling-stroke"  transform=" translate(-304, -163)" d="M 302 221 C 96 221 51 68 39 27 C 38 23 37 19 36 18 C 30 4 25 -3 16 -3 C 8 -3 3 0 3 10 C 3 13 3 17 4 21 C 65 327 272 329 304 329 C 333 329 542 327 604 21 C 605 17 605 14 605 11 C 605 1 600 -3 591 -3 C 581 -3 577 4 570 18 C 569 19 569 22 568 25 C 558 63 515 221 302 221 z M 358 52 C 358 22 333 -3 303 -3 C 274 -3 249 22 249 52 C 249 81 274 106 303 106 C 333 106 358 81 358 52 z" stroke-linecap="round" />
</g>
</svg>