<svg xmlns="http://www.w3.org/2000/svg" viewBox="49 20 50 50" width="40" height="40"><g class="" fill="currentColor" stroke="none" data-name="note" selectable="false" data-index="0"><path data-name="A" d="M 55.141000000000005 53.385000000000005c 0.36 -0.03 1.2 0 1.53 0.06c 1.17 0.24 1.89 0.84 2.16 1.83c 0.06 0.18 0.06 0.3 0.06 0.66c 0 0.45 0 0.63 -0.15 1.08c -0.66 2.04 -3.06 3.93 -5.52 4.38c -0.54 0.09 -1.44 0.09 -1.83 0.03c -1.23 -0.27 -1.98 -0.87 -2.25 -1.86c -0.06 -0.18 -0.06 -0.3 -0.06 -0.66c 0 -0.45 0 -0.63 0.15 -1.08c 0.24 -0.78 0.75 -1.53 1.44 -2.22c 1.2 -1.2 2.85 -2.01 4.47 -2.22z"/><path d="M 58.86 26.36L 58.86 56.66L 58.26 56.66L 58.26 26.36z" class="abcjs-stem" data-name="stem"/></g><g class="" fill="currentColor" stroke="none" data-name="note" selectable="false" data-index="1"><path data-name="B" d="M 85.141 49.510000000000005c 0.36 -0.03 1.2 0 1.53 0.06c 1.17 0.24 1.89 0.84 2.16 1.83c 0.06 0.18 0.06 0.3 0.06 0.66c 0 0.45 0 0.63 -0.15 1.08c -0.66 2.04 -3.06 3.93 -5.52 4.38c -0.54 0.09 -1.44 0.09 -1.83 0.03c -1.23 -0.27 -1.98 -0.87 -2.25 -1.86c -0.06 -0.18 -0.06 -0.3 -0.06 -0.66c 0 -0.45 0 -0.63 0.15 -1.08c 0.24 -0.78 0.75 -1.53 1.44 -2.22c 1.2 -1.2 2.85 -2.01 4.47 -2.22z"/><path d="M 88.86 22.56L 88.86 52.78L 88.26 52.78L 88.26 22.56z" class="abcjs-stem" data-name="stem"/></g><path d="M 55.05 63.25 C 64.16 70.14 76.16 68.48 83.05 59.37 C 76.43 70.46 64.43 72.12 55.05 63.25 z" stroke="none" fill="currentColor" class="" data-name="slur"/></svg>